<svg width="96" height="96" viewBox="0 0 96 96" fill="none" xmlns="http://www.w3.org/2000/svg">
  <rect x="10" y="10" width="76" height="76" rx="26" fill="url(#paint0_linear_1_1)"/>
  <path d="M48.0262 24C36.5148 24 27.1836 33.2787 27.1836 44.7266C27.1836 57.5362 37.7292 66.5476 44.0928 73.9999C46.1236 76.3774 49.9289 76.3774 51.9597 73.9999C58.3233 66.5476 68.8689 57.5362 68.8689 44.7266C68.8689 33.2787 59.5377 24 48.0262 24Z" fill="url(#paint1_linear_1_1)"/>
  <path d="M48.0266 31.5703C40.7121 31.5703 34.7832 37.4684 34.7832 44.7461C34.7832 48.2182 36.205 51.28 38.5123 54.2025C40.1374 56.2611 42.1261 58.1049 44.0611 60.1462C45.5748 61.7436 47.0168 63.4424 48.0266 65.0628C49.0363 63.4424 50.4783 61.7436 51.992 60.1462C53.927 58.1049 55.9158 56.2611 57.5408 54.2025C59.8481 51.28 61.2699 48.2182 61.2699 44.7461C61.2699 37.4684 55.341 31.5703 48.0266 31.5703Z" fill="white" fill-opacity="0.18"/>
  <path d="M47.998 37.2578C44.0544 37.2578 40.8574 40.4387 40.8574 44.3618V50.7507C40.8574 54.6738 44.0544 57.8547 47.998 57.8547C51.9416 57.8547 55.1385 54.6738 55.1385 50.7507V49.0758C55.1385 47.3865 53.7607 46.0174 52.061 46.0174H48.1351C46.4353 46.0174 45.0575 47.3865 45.0575 49.0758C45.0575 50.765 46.4353 52.1341 48.1351 52.1341H49.4539V50.8936C49.4539 50.0871 48.7977 49.4335 47.9882 49.4335C47.1787 49.4335 46.5225 48.7798 46.5225 47.9734V44.3618C46.5225 43.5554 47.1787 42.9017 47.9882 42.9017C48.7977 42.9017 49.4539 43.5554 49.4539 44.3618V45.1546C49.4539 46.8439 50.8317 48.213 52.5314 48.213C54.2312 48.213 55.609 46.8439 55.609 45.1546V44.3618C55.609 40.4387 52.4121 37.2578 48.4685 37.2578H47.998Z" fill="url(#paint2_linear_1_1)"/>
  <path d="M59.1328 38.543C60.8062 40.8488 61.7933 43.6873 61.7933 46.7554C61.7933 49.9252 60.7397 52.8516 58.9678 55.2079" stroke="white" stroke-opacity="0.45" stroke-width="3.2" stroke-linecap="round"/>
  <defs>
    <linearGradient id="paint0_linear_1_1" x1="18" y1="16" x2="76" y2="82" gradientUnits="userSpaceOnUse">
      <stop stop-color="#EEF2FF"/>
      <stop offset="1" stop-color="#E0E7FF"/>
    </linearGradient>
    <linearGradient id="paint1_linear_1_1" x1="33" y1="28" x2="66" y2="72" gradientUnits="userSpaceOnUse">
      <stop stop-color="#6366F1"/>
      <stop offset="1" stop-color="#4F46E5"/>
    </linearGradient>
    <linearGradient id="paint2_linear_1_1" x1="42.5" y1="39.5" x2="55.5" y2="56.5" gradientUnits="userSpaceOnUse">
      <stop stop-color="#EEF2FF"/>
      <stop offset="1" stop-color="#C7D2FE"/>
    </linearGradient>
  </defs>
</svg>
