<svg width="128" height="128" viewBox="0 0 128 128" fill="none" xmlns="http://www.w3.org/2000/svg">
  <rect width="128" height="128" rx="32" fill="#2E1065"/>
  <path fill-rule="evenodd" clip-rule="evenodd" d="M64 20C47.4315 20 34 33.4315 34 50C34 68.7725 50.4307 81.5535 59.6234 92.8556C61.8246 95.5628 66.1754 95.5628 68.3766 92.8556C77.5693 81.5535 94 68.7725 94 50C94 33.4315 80.5685 20 64 20ZM64 30C52.9543 30 44 38.9543 44 50C44 55.3463 46.2427 60.0178 49.7087 64.4509C52.1779 67.6091 55.1652 70.4013 58.1125 73.57C59.9427 75.5382 61.7517 77.6647 63.5 80.0337C65.2483 77.6647 67.0573 75.5382 68.8875 73.57C71.8348 70.4013 74.8221 67.6091 77.2913 64.4509C80.7573 60.0178 83 55.3463 83 50C83 38.9543 74.0457 30 63 30H64Z" fill="white"/>
  <path d="M64 38C59.5817 38 56 41.5817 56 46V58.5C56 62.9183 59.5817 66.5 64 66.5C68.4183 66.5 72 62.9183 72 58.5V56C72 53.7909 70.2091 52 68 52H63C60.7909 52 59 53.7909 59 56C59 58.2091 60.7909 60 63 60H65V58.5C65 59.0523 64.5523 59.5 64 59.5C63.4477 59.5 63 59.0523 63 58.5V46C63 45.4477 63.4477 45 64 45C64.5523 45 65 45.4477 65 46V48C65 50.2091 66.7909 52 69 52C71.2091 52 73 50.2091 73 48V46C73 41.5817 69.4183 38 65 38H64Z" fill="#2E1065"/>
  <path d="M78.5 39.5C80.433 42.4183 81.5607 45.9169 81.5607 49.6786C81.5607 53.5316 80.3778 57.1083 78.3567 60.0781" stroke="#A78BFA" stroke-width="4" stroke-linecap="round"/>
</svg>
