<svg width="96" height="96" viewBox="0 0 96 96" fill="none" xmlns="http://www.w3.org/2000/svg">
  <path
    d="M30 23.5C30 20.4624 32.4624 18 35.5 18H46.5C58.9264 18 69 28.0736 69 40.5V53.5C69 65.9264 58.9264 76 46.5 76H36.5C33.4624 76 31 73.5376 31 70.5V58.5C31 56.0147 33.0147 54 35.5 54C37.9853 54 40 56.0147 40 58.5V67H46.5C53.9558 67 60 60.9558 60 53.5V40.5C60 33.0442 53.9558 27 46.5 27H39V48C39 50.4853 36.9853 52.5 34.5 52.5C32.0147 52.5 30 50.4853 30 48V23.5Z"
    fill="#6366F1"
  />
  <path
    d="M62.5 30.5C65.1691 33.2456 66.8333 36.9936 66.8333 41.125C66.8333 45.2209 65.1976 48.9398 62.5708 51.6771"
    stroke="#93A5FF"
    stroke-width="4.75"
    stroke-linecap="round"
  />
</svg>
