<svg width="128" height="128" viewBox="0 0 128 128" fill="none" xmlns="http://www.w3.org/2000/svg">
  <defs>
    <linearGradient id="iconBg" x1="24" y1="20" x2="104" y2="110" gradientUnits="userSpaceOnUse">
      <stop stop-color="#818CF8"/>
      <stop offset="1" stop-color="#4F46E5"/>
    </linearGradient>
    <linearGradient id="iconGlow" x1="42" y1="32" x2="88" y2="87" gradientUnits="userSpaceOnUse">
      <stop stop-color="white" stop-opacity="0.34"/>
      <stop offset="1" stop-color="white" stop-opacity="0.08"/>
    </linearGradient>
  </defs>
  <rect x="10" y="10" width="108" height="108" rx="30" fill="url(#iconBg)"/>
  <path
    d="M64 28C50.632 28 39.792 38.983 39.792 52.522C39.792 68.711 53 80.072 59.706 88.294C61.92 91.008 66.08 91.008 68.294 88.294C75 80.072 88.208 68.711 88.208 52.522C88.208 38.983 77.368 28 64 28Z"
    fill="url(#iconGlow)"
  />
  <path
    d="M55.887 43.522C55.887 41.786 57.294 40.379 59.03 40.379H65.001C73.051 40.379 79.576 46.904 79.576 54.954C79.576 63.004 73.051 69.529 65.001 69.529H57.061C55.325 69.529 53.918 68.122 53.918 66.386V60.36C53.918 58.624 55.325 57.217 57.061 57.217C58.797 57.217 60.204 58.624 60.204 60.36V63.242H65.001C69.58 63.242 73.292 59.53 73.292 54.954C73.292 50.375 69.58 46.663 65.001 46.663H62.173V55.315C62.173 57.051 60.766 58.458 59.03 58.458C57.294 58.458 55.887 57.051 55.887 55.315V43.522Z"
    fill="white"
  />
  <path
    d="M75.031 43.96C77.044 46.487 78.25 49.688 78.25 53.17C78.25 56.629 77.061 59.809 75.07 62.326"
    stroke="white"
    stroke-opacity="0.5"
    stroke-width="4"
    stroke-linecap="round"
  />
</svg>
