<svg width="96" height="96" viewBox="0 0 96 96" fill="none" xmlns="http://www.w3.org/2000/svg">
  <defs>
    <linearGradient id="boltGradient" x1="24" y1="14" x2="66" y2="78" gradientUnits="userSpaceOnUse">
      <stop stop-color="#818CF8"/>
      <stop offset="0.55" stop-color="#6366F1"/>
      <stop offset="1" stop-color="#4F46E5"/>
    </linearGradient>
  </defs>
  <path
    d="M54.356 11.5C56.976 11.5 58.828 14.064 57.986 16.545L50.576 38.378H67.308C69.98 38.378 71.813 41.037 70.875 43.539L47.54 82.378C46.476 84.151 43.799 83.209 44.018 81.154L47.327 50.018H29.598C26.914 50.018 25.083 47.336 26.047 44.831L51.314 13.667C52.056 12.752 53.172 11.5 54.356 11.5Z"
    fill="url(#boltGradient)"
  />
  <path
    d="M54.356 11.5C56.976 11.5 58.828 14.064 57.986 16.545L50.576 38.378H67.308C69.98 38.378 71.813 41.037 70.875 43.539L47.54 82.378C46.476 84.151 43.799 83.209 44.018 81.154L47.327 50.018H29.598C26.914 50.018 25.083 47.336 26.047 44.831L51.314 13.667C52.056 12.752 53.172 11.5 54.356 11.5Z"
    stroke="rgba(255,255,255,0.42)"
    stroke-width="2"
    stroke-linejoin="round"
  />
</svg>
