<svg xmlns="http://www.w3.org/2000/svg" viewBox="0 0 1600 900" role="img" aria-labelledby="title desc">
  <title id="title">LiveDrop Home Category</title>
  <desc id="desc">A home themed category banner with house and interior-inspired visuals.</desc>
  <defs>
    <linearGradient id="bgHome" x1="0" y1="0" x2="1" y2="1">
      <stop offset="0%" stop-color="#EAF2FF"/>
      <stop offset="56%" stop-color="#E2ECFF"/>
      <stop offset="100%" stop-color="#DAE7FF"/>
    </linearGradient>
    <linearGradient id="house" x1="0" y1="0" x2="1" y2="1">
      <stop offset="0%" stop-color="#6E66FF"/>
      <stop offset="100%" stop-color="#41B8FF"/>
    </linearGradient>
  </defs>

  <rect width="1600" height="900" fill="url(#bgHome)"/>
  <rect x="180" y="180" width="1240" height="510" rx="44" fill="#FFFFFF" fill-opacity="0.93"/>

  <path d="M470 460L680 290L890 460V610H470V460Z" fill="url(#house)"/>
  <rect x="560" y="510" width="90" height="100" rx="18" fill="#EAF4FF"/>
  <rect x="710" y="500" width="110" height="90" rx="16" fill="#EAF4FF"/>
  <rect x="710" y="370" width="110" height="90" rx="16" fill="#EAF4FF"/>

  <rect x="980" y="300" width="300" height="300" rx="30" fill="#F2F7FF"/>
  <rect x="1035" y="360" width="190" height="20" rx="10" fill="#B8C9EA"/>
  <rect x="1035" y="405" width="220" height="18" rx="9" fill="#C7D5EE"/>
  <rect x="1035" y="445" width="170" height="18" rx="9" fill="#D0DCF1"/>
  <rect x="1035" y="494" width="240" height="22" rx="11" fill="#B8C9EA"/>

  <g font-family="Inter, Arial, sans-serif" fill="#1F325F">
    <text x="180" y="760" font-size="44" font-weight="800">HOME FINDS</text>
    <text x="180" y="805" font-size="26" opacity="0.72">Comfort upgrades, essentials, and smart home value picks.</text>
  </g>
</svg>
